<svg version="1.1" id="Layer_1" xmlns="http://www.w3.org/2000/svg" x="0" y="0" viewBox="0 0 256 256" style="enable-background:new 0 0 256 256" xml:space="preserve"><style>.st6{fill:#1c868e}.st7{fill:#40c4df}.st9{fill:#56c1b3}.st10{fill:#7befe4}</style><path class="st6" d="M190.24 128.031c0 31.91-24.02 58.21-54.97 61.81-2.38.29-4.81.43-7.27.43-34.37 0-62.24-27.87-62.24-62.24s27.87-62.24 62.24-62.24c2.46 0 4.89.14 7.27.43 30.95 3.6 54.97 29.9 54.97 61.81z"/><path class="st9" d="m147.09 26.301-11.26 11.26-4.29 4.3a5.034 5.034 0 0 1-7.08 0l-15.55-15.56c-1.95-1.94-1.95-5.12 0-7.07l15.55-15.55a5.016 5.016 0 0 1 7.08 0l15.55 15.55c1.95 1.95 1.95 5.13 0 7.07z"/><path class="st6" d="M83.21 11.771v22c0 2.75-2.25 5-5 5h-22c-2.75 0-5-2.25-5-5v-22c0-2.75 2.25-5 5-5h22c2.75 0 5 2.25 5 5zM204.79 11.771v22c0 2.75-2.25 5-5 5h-22c-2.75 0-5-2.25-5-5v-22c0-2.75 2.25-5 5-5h22c2.75 0 5 2.25 5 5z"/><path class="st9" d="m147.09 236.771-11.26 11.26-4.29 4.29a5.016 5.016 0 0 1-7.08 0l-15.55-15.55a5.016 5.016 0 0 1 0-7.08l15.55-15.55a5.016 5.016 0 0 1 7.08 0l4.29 4.29 11.26 11.26a5.016 5.016 0 0 1 0 7.08z"/><path class="st6" d="M204.79 222.231v22c0 2.75-2.25 5-5 5h-22c-2.75 0-5-2.25-5-5v-22c0-2.75 2.25-5 5-5h22c2.75 0 5 2.25 5 5zM83.21 222.231v22c0 2.75-2.25 5-5 5h-22c-2.75 0-5-2.25-5-5v-22c0-2.75 2.25-5 5-5h22c2.75 0 5 2.25 5 5z"/><path class="st7" d="M190.24 128.031c0 31.91-24.02 58.21-54.97 61.81-30.95-3.6-54.96-29.9-54.96-61.81 0-31.91 24.01-58.21 54.96-61.81 30.95 3.6 54.97 29.9 54.97 61.81zM83.21 11.771v22c0 2.75-2.25 5-5 5h-7.45c-2.75 0-5-2.25-5-5v-22c0-2.75 2.25-5 5-5h7.45c2.75 0 5 2.25 5 5zM204.79 11.771v22c0 2.75-2.25 5-5 5h-7.46c-2.75 0-5-2.25-5-5v-22c0-2.75 2.25-5 5-5h7.46c2.75 0 5 2.25 5 5zM204.79 222.231v22c0 2.75-2.25 5-5 5h-7.46c-2.75 0-5-2.25-5-5v-22c0-2.75 2.25-5 5-5h7.46c2.75 0 5 2.25 5 5zM83.21 222.231v22c0 2.75-2.25 5-5 5h-7.45c-2.75 0-5-2.25-5-5v-22c0-2.75 2.25-5 5-5h7.45c2.75 0 5 2.25 5 5z"/><path class="st9" d="M253.51 128.031c0 7.84-4.69 14.59-11.42 17.59a19.11 19.11 0 0 1-7.83 1.66c-10.64 0-19.25-8.62-19.25-19.25s8.61-19.25 19.25-19.25c2.79 0 5.44.59 7.83 1.66 6.73 3 11.42 9.75 11.42 17.59zM40.99 128.031c0 7.84-4.68 14.59-11.41 17.58a19.003 19.003 0 0 1-7.84 1.67c-10.63 0-19.25-8.62-19.25-19.25s8.62-19.25 19.25-19.25c2.79 0 5.45.59 7.84 1.67a19.221 19.221 0 0 1 11.41 17.58z"/><path class="st10" d="m147.09 26.301-11.26 11.26-11.26-11.26c-1.94-1.94-1.94-5.12 0-7.07l11.26-11.26 11.26 11.26c1.95 1.95 1.95 5.13 0 7.07zM147.09 236.771l-11.26 11.26-11.26-11.26a5.034 5.034 0 0 1 0-7.08l11.26-11.26 11.26 11.26a5.016 5.016 0 0 1 0 7.08zM253.51 128.031c0 7.84-4.69 14.59-11.42 17.59-6.73-3-11.42-9.75-11.42-17.59s4.69-14.59 11.42-17.59c6.73 3 11.42 9.75 11.42 17.59zM40.99 128.031c0 7.84-4.68 14.59-11.41 17.58-6.73-2.99-11.42-9.74-11.42-17.58 0-7.84 4.69-14.59 11.42-17.58a19.221 19.221 0 0 1 11.41 17.58z"/><path d="M234.256 106.781c-11.043 0-20.136 8.468-21.149 19.25h-20.92C191.145 92.2 163.831 64.886 130 63.844v-7.027h53.786c3.859 0 7-3.14 7-7V40.77h9c3.859 0 7-3.14 7-7v-22c0-3.86-3.141-7-7-7h-22c-3.859 0-7 3.14-7 7v22c0 3.86 3.141 7 7 7h9v9.047c0 1.654-1.346 3-3 3H130V45.03a6.939 6.939 0 0 0 2.949-1.755l15.557-15.556a7.008 7.008 0 0 0 0-9.899L132.949 2.263C131.632.945 129.874.219 128 .219s-3.632.726-4.949 2.044l-15.557 15.556a7.008 7.008 0 0 0 0 9.899l15.557 15.556A6.929 6.929 0 0 0 126 45.029v7.786H72.214c-1.654 0-3-1.346-3-3v-9.047h9c3.859 0 7-3.14 7-7v-22c0-3.86-3.141-7-7-7h-22c-3.859 0-7 3.14-7 7v22c0 3.86 3.141 7 7 7h9v9.047c0 3.86 3.141 7 7 7H126v7.027C92.169 64.886 64.855 92.2 63.813 126.031h-20.92c-1.012-10.782-10.106-19.25-21.149-19.25-11.718 0-21.25 9.533-21.25 21.25s9.532 21.25 21.25 21.25c11.043 0 20.136-8.468 21.149-19.25h20.92c1.042 33.831 28.356 61.145 62.188 62.188v6.965H72.214c-3.859 0-7 3.14-7 7v9.047h-9c-3.859 0-7 3.14-7 7v22c0 3.86 3.141 7 7 7h22c3.859 0 7-3.14 7-7v-22c0-3.86-3.141-7-7-7h-9v-9.047c0-1.654 1.346-3 3-3H126v7.786a6.931 6.931 0 0 0-2.949 1.756l-15.557 15.556a7.008 7.008 0 0 0 0 9.899l15.557 15.556c1.317 1.318 3.075 2.044 4.949 2.044s3.632-.726 4.949-2.044l15.557-15.556a7.008 7.008 0 0 0 0-9.899l-15.557-15.556A6.941 6.941 0 0 0 130 210.97v-7.786h53.786c1.654 0 3 1.346 3 3v9.047h-9c-3.859 0-7 3.14-7 7v22c0 3.86 3.141 7 7 7h22c3.859 0 7-3.14 7-7v-22c0-3.86-3.141-7-7-7h-9v-9.047c0-3.86-3.141-7-7-7H130v-6.965c33.831-1.042 61.145-28.356 62.188-62.188h20.92c1.012 10.782 10.106 19.25 21.149 19.25 11.718 0 21.25-9.533 21.25-21.25s-9.533-21.25-21.251-21.25zm-59.47-73.012v-22c0-1.654 1.346-3 3-3h22c1.654 0 3 1.346 3 3v22c0 1.654-1.346 3-3 3h-22c-1.654 0-3-1.346-3-3zm-64.464-8.878a3.004 3.004 0 0 1 0-4.243l15.557-15.556c.563-.563 1.316-.873 2.121-.873s1.559.31 2.121.873l15.557 15.556a3.004 3.004 0 0 1 0 4.243l-15.557 15.556c-1.125 1.125-3.117 1.125-4.242 0l-15.557-15.556zm-57.108 8.878v-22c0-1.654 1.346-3 3-3h22c1.654 0 3 1.346 3 3v22c0 1.654-1.346 3-3 3h-22c-1.654 0-3-1.346-3-3zm28 188.462v22c0 1.654-1.346 3-3 3h-22c-1.654 0-3-1.346-3-3v-22c0-1.654 1.346-3 3-3h22c1.654 0 3 1.346 3 3zm64.464 8.878a3.005 3.005 0 0 1 0 4.243l-15.557 15.556c-1.125 1.126-3.117 1.126-4.242 0l-15.557-15.556a3.005 3.005 0 0 1 0-4.243l15.557-15.556c1.125-1.126 3.117-1.126 4.242 0l15.557 15.556zm57.108-8.878v22c0 1.654-1.346 3-3 3h-22c-1.654 0-3-1.346-3-3v-22c0-1.654 1.346-3 3-3h22c1.654 0 3 1.346 3 3zm-181.042-76.95c-9.512 0-17.25-7.738-17.25-17.25s7.738-17.25 17.25-17.25c9.503 0 17.235 7.725 17.249 17.224 0 .009-.003.017-.003.026s.002.017.003.026c-.014 9.5-7.746 17.224-17.249 17.224zM128 188.27c-33.216 0-60.238-27.023-60.238-60.238S94.784 67.793 128 67.793s60.238 27.023 60.238 60.238S161.216 188.27 128 188.27zm106.256-42.989c-9.512 0-17.25-7.738-17.25-17.25s7.738-17.25 17.25-17.25 17.25 7.738 17.25 17.25-7.738 17.25-17.25 17.25z" style="fill:#491352"/></svg>