<svg version="1.1" id="icons" xmlns="http://www.w3.org/2000/svg" x="0" y="0" viewBox="0 0 64 64" style="enable-background:new 0 0 64 64" xml:space="preserve"><style>.st0{display:none}.st1{display:inline}.st2{fill:#5edfc5}.st3{fill:none;stroke:#414042;stroke-miterlimit:10}.st4,.st5{display:inline;fill:#d1d3d4}.st5{fill:#f1f2f2}.st6{fill:#fff}.st6,.st7,.st8{display:inline}.st7{fill:none;stroke:#414042;stroke-miterlimit:10}.st8{fill:#f5ab35}.st9{fill:#414042}.st10{fill:#fff}.st11,.st12,.st13{fill:#36d7b7}.st12,.st13{display:inline}.st13{fill:#e6e7e8}.st14{fill:#a7a9ac}.st15,.st16{fill:none;stroke:#414042;stroke-miterlimit:10}.st15{display:inline;stroke-dasharray:1}.st16{stroke-linecap:round}.st17{fill:#939598}.st19{display:inline;fill:none;stroke:#bcbec0;stroke-miterlimit:10}.st22{fill:#f5ab35}.st24{fill:#f1f2f2}.st25{fill:#e6e7e8}.st27,.st31{display:inline;fill:#f7bc5d}.st31{fill:#29a189}.st36{fill:#d1d3d4}.st38,.st39{display:inline;fill:#414042}.st39{fill:none;stroke:#414042;stroke-linecap:round;stroke-miterlimit:10}.st40{fill:#bcbec0}</style><g id="XMLID_911_"><g id="XMLID_407_"><path id="XMLID_414_" class="st10" d="M43.9 48.4h-28v-3h28l3.7 1.4c.1 0 .1.1 0 .2l-3.7 1.4z"/><path id="XMLID_413_" class="st22" d="M15.9 45.4h28v3h-28z"/><path id="XMLID_412_" style="fill:#f9cd86" d="M15.9 45.4h28v1.5h-28z"/><path id="XMLID_411_" class="st10" d="M15.8 45.4h3.5v3.1h-3.5z"/><path id="XMLID_410_" class="st3" d="M43.9 48.4h-28v-3h28l3.7 1.4c.1 0 .1.1 0 .2l-3.7 1.4z"/><path id="XMLID_409_" class="st3" d="M19.3 45.4V48"/><path id="XMLID_408_" class="st3" d="M43.9 45.6v2.6"/></g><path id="XMLID_815_" class="st17" d="M12.8 19.3h37.9v24.1H12.8z"/><path id="XMLID_910_" style="opacity:.22;fill:#231f20" d="M12.8 19.8h37.9v9.4H12.8z"/><path id="XMLID_816_" class="st14" d="M12.8 19.3h37.9v9.4H12.8z"/><path id="XMLID_817_" class="st22" d="M30.2 26.5h3v4.9h-3z"/><path id="XMLID_818_" class="st3" d="M12.8 26.1v-6.8h37.9v6.8"/><path id="XMLID_820_" class="st3" d="M26.1 19.6v-2.2c0-1 .9-1.9 1.9-1.9h7.5c1 0 1.9.9 1.9 1.9v2.2"/><path id="XMLID_821_" class="st10" d="M12.8 27.9h11.4v15.3H12.8z"/><path id="XMLID_822_" class="st11" d="M12.8 27.9h11.4v3.8H12.8z"/><path id="XMLID_819_" class="st3" d="M12.8 27.9h11.4v15.3H12.8z"/><circle id="XMLID_823_" class="st14" cx="15.8" cy="34.9" r="2"/><circle id="XMLID_824_" class="st14" cx="21.1" cy="34.9" r="2"/><circle id="XMLID_862_" class="st14" cx="15.9" cy="39.5" r="2"/><circle id="XMLID_861_" class="st14" cx="21.2" cy="39.5" r="2"/><path id="XMLID_883_" class="st9" d="M15.7 35.8v-.7H15v-.4h.7V34h.3v.7h.7v.4H16v.7h-.3z"/><path id="XMLID_895_" class="st9" d="m16.4 40.2-.5-.5-.5.5-.3-.2.5-.5-.5-.5.2-.2.5.5.5-.5.3.3-.5.5.5.5-.2.1z"/><path id="XMLID_885_" class="st9" d="M20.6 35.1v-.4h1.3v.4h-1.3z"/><path id="XMLID_863_" class="st9" d="M20.6 39.7v-.4h1.3v.4h-1.3z"/><circle id="XMLID_892_" class="st9" cx="21.2" cy="38.7" r=".3"/><circle id="XMLID_893_" class="st9" cx="21.2" cy="40.2" r=".3"/><path id="XMLID_922_" class="st24" d="M36.5 21.8h14.7v21.6H36.5z"/><path id="XMLID_921_" class="st3" d="M44.2 25h5.4"/><path id="XMLID_920_" class="st3" d="M44.2 27.1h5.4"/><path id="XMLID_919_" class="st3" d="M44.2 29.3h5.4"/><path id="XMLID_918_" class="st3" d="M38.7 31.5h10.9"/><path id="XMLID_917_" class="st3" d="M38.7 33.7h10.9"/><path id="XMLID_916_" class="st3" d="M38.7 35.8h10.9"/><path id="XMLID_915_" class="st3" d="M38.7 38h10.9"/><path id="XMLID_914_" class="st3" d="M38.7 40.2h5.2"/><path id="XMLID_894_" class="st11" d="M38.5 24.4h4.9v5.5h-4.9z"/></g></svg>